<svg width="32" height="32" viewBox="0 0 32 32" fill="none" xmlns="http://www.w3.org/2000/svg">
<path d="M11.5763 28C11.8726 28 12.0973 27.9904 12.2454 27.9712C12.4192 27.937 12.5759 27.8465 12.6898 27.7144C12.838 27.5632 12.912 27.3448 12.912 27.0568L12.9022 25.7201C12.8948 24.8681 12.8923 24.1914 12.8923 23.6946L12.4281 23.7738C12.0567 23.8306 11.6806 23.8531 11.3047 23.841C10.8326 23.8329 10.3619 23.7871 9.89744 23.7042C9.40454 23.6149 8.94069 23.4125 8.54445 23.1138C8.12907 22.8084 7.81908 22.3874 7.65562 21.9067L7.45317 21.4531C7.28288 21.0959 7.06901 20.7599 6.81617 20.4523C6.58917 20.137 6.28667 19.88 5.93475 19.7036L5.79402 19.6076C5.69711 19.5382 5.60923 19.4576 5.53231 19.3676C5.45766 19.2858 5.39607 19.1936 5.34961 19.094C5.3101 19.0028 5.3422 18.926 5.44837 18.8684C5.6347 18.7956 5.8357 18.7652 6.03598 18.7796L6.44089 18.8396C6.71248 18.89 7.04579 19.0484 7.44329 19.31C7.83832 19.574 8.1667 19.9124 8.42347 20.3323C8.73456 20.8699 9.10737 21.2803 9.54685 21.5611C9.93477 21.827 10.3956 21.9741 10.8702 21.9835C11.3146 21.9835 11.6998 21.9523 12.0232 21.8875C12.338 21.824 12.6439 21.7241 12.9343 21.5899C13.0552 20.7139 13.3836 20.0372 13.9219 19.5668C13.2231 19.4996 12.5306 19.3808 11.8504 19.2116C11.1862 19.0336 10.5476 18.7757 9.94929 18.4436C9.32274 18.1132 8.76909 17.6664 8.31977 17.1285C7.89017 16.6029 7.53711 15.9165 7.25812 15.0646C6.96722 14.1075 6.82819 13.1129 6.8458 12.1151C6.8458 10.5312 7.3791 9.18002 8.44322 8.06647C7.94449 6.87372 7.9914 5.53698 8.58395 4.05625C8.97652 3.93625 9.55672 4.02505 10.3246 4.32024C11.0924 4.61542 11.6578 4.86741 12.0133 5.0786C12.3713 5.28739 12.6553 5.46259 12.8725 5.60658C14.1371 5.26521 15.4438 5.09403 16.7562 5.0978C18.0895 5.0978 19.3857 5.26579 20.6399 5.60898L21.4053 5.1362C21.9336 4.82421 22.5534 4.53383 23.2669 4.27224C23.9829 4.00825 24.5285 3.93625 24.9063 4.05625C25.5136 5.53698 25.568 6.87372 25.0668 8.06407C26.1333 9.18002 26.6666 10.5288 26.6666 12.1151C26.6666 13.2286 26.5284 14.215 26.2519 15.0742C25.9753 15.9333 25.6173 16.6197 25.1803 17.1381C24.7236 17.6707 24.1674 18.1145 23.5409 18.446C22.9427 18.7782 22.304 19.0361 21.6398 19.214C20.9587 19.3826 20.2654 19.5005 19.5659 19.5668C20.2671 20.1547 20.6177 21.0859 20.6177 22.3578V27.0544C20.6177 27.2776 20.6522 27.4576 20.7189 27.5968C20.7503 27.6631 20.7951 27.7226 20.8507 27.7717C20.9062 27.8207 20.9714 27.8584 21.0423 27.8824C21.1905 27.9328 21.3238 27.9664 21.4374 27.9784C21.5534 27.9928 21.7164 28 21.9312 28H11.5788H11.5763Z" fill="#1C1C1C"/>
</svg>
