<svg width="32" height="32" viewBox="0 0 32 32" fill="none" xmlns="http://www.w3.org/2000/svg">
<path d="M28 18.7143V28H22.8559V19.336C22.8559 17.159 22.1115 15.6741 20.2501 15.6741C18.8288 15.6741 17.9823 16.6758 17.6107 17.6435C17.4748 17.9895 17.44 18.4715 17.44 18.956V28H12.2934C12.2934 28 12.3631 13.3272 12.2934 11.8058H17.44V14.1011L17.4063 14.1539H17.44V14.1011C18.123 13 19.3435 11.4258 22.0767 11.4258C25.4616 11.4258 28 13.7412 28 18.7143V18.7143ZM6.91117 4C5.15196 4 4 5.20805 4 6.7974C4 8.35151 5.11829 9.59606 6.84383 9.59606H6.8775C8.67278 9.59606 9.78746 8.35151 9.78746 6.7974C9.7562 5.20805 8.67398 4 6.91237 4H6.91117ZM4.30543 28H9.44957V11.8058H4.30543V28Z" fill="#1C1C1C"/>
</svg>
