<svg width="32" height="32" viewBox="0 0 32 32" fill="none" xmlns="http://www.w3.org/2000/svg">
<path d="M17.7143 16.0853L19.636 14.272C19.9591 13.9769 20.392 13.8134 20.8415 13.8168C21.291 13.8202 21.7211 13.9901 22.0392 14.2901C22.3572 14.5901 22.5378 14.9961 22.542 15.4206C22.5463 15.8451 22.3738 16.2542 22.0617 16.5597L17.212 21.14C17.0532 21.2909 16.8643 21.4106 16.6563 21.4923C16.4483 21.574 16.2253 21.6161 16 21.6161C15.7747 21.6161 15.5517 21.574 15.3437 21.4923C15.1357 21.4106 14.9468 21.2909 14.788 21.14L9.93829 16.5597C9.77912 16.4092 9.65291 16.2305 9.56686 16.0339C9.48081 15.8373 9.4366 15.6267 9.43676 15.4139C9.43708 14.9843 9.6181 14.5724 9.94 14.2688C10.2619 13.9652 10.6983 13.7948 11.1532 13.7951C11.6081 13.7954 12.0443 13.9664 12.3657 14.2704L14.2857 16.0853V6.9523C14.2857 6.5229 14.4663 6.11109 14.7878 5.80746C15.1093 5.50383 15.5453 5.33325 16 5.33325C16.4547 5.33325 16.8907 5.50383 17.2122 5.80746C17.5337 6.11109 17.7143 6.5229 17.7143 6.9523V16.0853ZM5.71429 24.7618H26.2857C26.7404 24.7618 27.1764 24.9324 27.4979 25.236C27.8194 25.5397 28 25.9515 28 26.3809C28 26.8103 27.8194 27.2221 27.4979 27.5257C27.1764 27.8293 26.7404 27.9999 26.2857 27.9999H5.71429C5.25963 27.9999 4.82359 27.8293 4.5021 27.5257C4.18061 27.2221 4 26.8103 4 26.3809C4 25.9515 4.18061 25.5397 4.5021 25.236C4.82359 24.9324 5.25963 24.7618 5.71429 24.7618Z" fill="#1C1C1C"/>
</svg>
