<svg width="32" height="32" viewBox="0 0 32 32" fill="none" xmlns="http://www.w3.org/2000/svg">
<path d="M23.3227 26.8479V19.8186H25.5427V29.1813H5.50665V19.8186H7.72665V26.8479H23.3227Z" fill="#1C1C1C"/>
<path d="M10.176 19.1519L21.0733 21.5453L21.5347 19.2426L10.6373 16.8479L10.176 19.1519V19.1519ZM11.6187 13.6973L21.708 18.6359L22.6307 16.5159L12.54 11.5453L11.6187 13.6973V13.6973ZM14.4147 8.48394L22.976 15.9693L24.3893 14.1826L15.8267 6.69594L14.4133 8.48261L14.4147 8.48394ZM19.9493 2.94127L18.1627 4.33327L24.7933 13.7266L26.58 12.3333L19.9493 2.93994V2.94127ZM9.94666 24.4853H21.0747V22.1519H9.94666V24.4853Z" fill="#1C1C1C"/>
</svg>
